<?xml version="1.0" encoding="UTF-8" standalone="no"?>
<svg
   xmlns:dc="http://purl.org/dc/elements/1.1/"
   xmlns:cc="http://creativecommons.org/ns#"
   xmlns:rdf="http://www.w3.org/1999/02/22-rdf-syntax-ns#"
   xmlns:svg="http://www.w3.org/2000/svg"
   xmlns="http://www.w3.org/2000/svg"
   xmlns:xlink="http://www.w3.org/1999/xlink"
   xmlns:sodipodi="http://sodipodi.sourceforge.net/DTD/sodipodi-0.dtd"
   xmlns:inkscape="http://www.inkscape.org/namespaces/inkscape"
   sodipodi:docname="officialFrontPage.svg"
   inkscape:version="1.0rc1 (09960d6f05, 2020-04-09)"
   id="svg8"
   version="1.1"
   viewBox="0 0 170 240"
   height="240mm"
   width="170mm">
  <defs
     id="defs2">
    <linearGradient
       id="linearGradient1209"
       inkscape:collect="always">
      <stop
         id="stop1205"
         offset="0"
         style="stop-color:#dfdede;stop-opacity:1;" />
      <stop
         id="stop1207"
         offset="1"
         style="stop-color:#dfdede;stop-opacity:0;" />
    </linearGradient>
    <clipPath
       clipPathUnits="userSpaceOnUse"
       id="clipPath863">
      <path
         d="M 78.832,418.821 H 396.48 V 315.705 H 78.832 Z"
         id="path861"
         inkscape:connector-curvature="0" />
    </clipPath>
    <clipPath
       clipPathUnits="userSpaceOnUse"
       id="clipPath911">
      <path
         d="m 277.657,69.084 h -75.22 V 53.778 h 75.22 z"
         id="path909"
         inkscape:connector-curvature="0" />
    </clipPath>
    <clipPath
       clipPathUnits="userSpaceOnUse"
       id="clipPath931">
      <path
         d="m 277.657,69.084 h -75.22 V 53.778 h 75.22 z"
         id="path929"
         inkscape:connector-curvature="0" />
    </clipPath>
    <clipPath
       clipPathUnits="userSpaceOnUse"
       id="clipPath951">
      <path
         d="M 0.029999,679.98 H 482.01 V 0 H 0.029999 Z"
         id="path949"
         inkscape:connector-curvature="0" />
    </clipPath>
    <linearGradient
       gradientTransform="matrix(0.93325845,0,0,1.0584381,22.198293,11.456101)"
       gradientUnits="userSpaceOnUse"
       y2="79.152168"
       x2="76.973618"
       y1="113.8972"
       x1="76.661743"
       id="linearGradient1211"
       xlink:href="#linearGradient1209"
       inkscape:collect="always" />
  </defs>
  <sodipodi:namedview
     inkscape:window-maximized="1"
     inkscape:window-y="-8"
     inkscape:window-x="-8"
     inkscape:window-height="1137"
     inkscape:window-width="1920"
     showgrid="false"
     inkscape:document-rotation="0"
     inkscape:current-layer="layer1"
     inkscape:document-units="mm"
     inkscape:cy="391.49731"
     inkscape:cx="296.88906"
     inkscape:zoom="0.7"
     inkscape:pageshadow="2"
     inkscape:pageopacity="0.0"
     borderopacity="1.0"
     bordercolor="#666666"
     pagecolor="#ffffff"
     id="base" />
  <metadata
     id="metadata5">
    <rdf:RDF>
      <cc:Work
         rdf:about="">
        <dc:format>image/svg+xml</dc:format>
        <dc:type
           rdf:resource="http://purl.org/dc/dcmitype/StillImage" />
        <dc:title></dc:title>
      </cc:Work>
    </rdf:RDF>
  </metadata>
  <g
     id="layer1"
     inkscape:groupmode="layer"
     inkscape:label="Calque 1">
    <g
       transform="matrix(0.35277777,0,0,-0.35277777,20.574103,31.007305)"
       id="g845">
      <path
         sodipodi:nodetypes="cssssssc"
         inkscape:connector-curvature="0"
         id="path847"
         style="fill:#7b7979;fill-opacity:1;fill-rule:nonzero;stroke:none"
         d="m 0,25.338 c 0,3.301 2.676,5.977 5.977,5.977 h 234.659 c 3.302,0 5.978,-2.676 5.978,-5.977 l 0,-14.310508 c 0,-3.3009996 -2.676,-5.9769996 -5.978,-5.9769996 H 5.977 c -3.301,0 -5.977,2.676 -5.977,5.9769996" />
    </g>
    <text
       y="26.005341"
       x="22.574036"
       id="text855"
       style="font-style:normal;font-variant:normal;font-weight:bold;font-stretch:normal;font-size:5.28948px;font-family:sans-serif;-inkscape-font-specification:'sans-serif, Bold';font-variant-ligatures:normal;font-variant-caps:normal;font-variant-numeric:normal;font-variant-east-asian:normal;writing-mode:lr-tb;fill:#ffffff;fill-opacity:1;fill-rule:nonzero;stroke:none;stroke-width:0.352778"><tspan
         y="26.005341"
         x="22.574036"
         style="font-style:normal;font-variant:normal;font-weight:bold;font-stretch:normal;font-size:5.28948px;font-family:sans-serif;-inkscape-font-specification:'sans-serif, Bold';font-variant-ligatures:normal;font-variant-caps:normal;font-variant-numeric:normal;font-variant-east-asian:normal;stroke-width:0.352778"
         id="tspan853"
         sodipodi:role="line">François Rebaudo</tspan></text>
    <g
       transform="matrix(0.35277777,0,0,-0.35277777,-12.322109,226.6173)"
       id="g857">
      <g
         clip-path="url(#clipPath863)"
         id="g859">
        <g
           transform="matrix(317.909,0,0,103.212,78.744,315.654)"
           id="g865" />
      </g>
    </g>
    <g
       transform="matrix(0.35277777,0,0,-0.35277777,0.77409749,240.51532)"
       id="g905">
      <g
         clip-path="url(#clipPath911)"
         id="g907">
        <g
           transform="translate(276.061,61.417)"
           id="g913">
          <path
             inkscape:connector-curvature="0"
             id="path915"
             style="fill:#231f20;fill-opacity:1;fill-rule:nonzero;stroke:none"
             d="m 0,0 c 0.03,6.487 -6.395,6.76 -7.622,6.76 -1.23,0 -2.08,-0.23 -2.08,-0.23 0,0 0,-11.061 0,-12.228 0,-1.165 3.024,-1.014 3.024,-1.014 0,0 6.642,-0.255 6.678,6.712 l 1.596,0.345 c -0.264,-7.686 -7.835,-7.67 -7.835,-7.67 h -5.456 c 0,0 0.503,0.063 0.542,0.542 V 6.814 c -0.047,0.473 -0.542,0.532 -0.542,0.532 h 5.236 c 0,0 7.677,0.496 8.055,-7.001" />
        </g>
      </g>
    </g>
    <g
       transform="matrix(0.35277777,0,0,-0.35277777,87.646329,221.52776)"
       id="g917">
      <path
         inkscape:connector-curvature="0"
         id="path919"
         style="fill:#231f20;fill-opacity:1;fill-rule:nonzero;stroke:none"
         d="m 0,0 v 14.408 c 0.052,0.457 0.539,0.532 0.539,0.532 h -2.067 c 0,0 0.474,-0.071 0.538,-0.532 V 3.36 L -12.278,15.257 V 0.811 C -12.329,0.328 -12.82,0.269 -12.82,0.269 h 2.071 c 0,0 -0.495,0.067 -0.538,0.542 L -11.285,11.99 0,0" />
    </g>
    <g
       transform="matrix(0.35277777,0,0,-0.35277777,82.446737,216.25726)"
       id="g921">
      <path
         inkscape:connector-curvature="0"
         id="path923"
         style="fill:#231f20;fill-opacity:1;fill-rule:nonzero;stroke:none"
         d="m 0,0 c 0,0 -0.465,-0.079 -0.538,-0.532 v -13.597 c 0.043,-0.487 0.549,-0.542 0.549,-0.542 h -2.005 v 2.806 c -0.546,-1.092 -2.501,-2.996 -4.893,-3.119 -5.381,0 -6.282,3.681 -6.282,6.168 v 8.284 C -13.205,-0.095 -13.713,0 -13.713,0 h 2.517 c 0,0 -0.485,-0.095 -0.521,-0.536 v -8.258 c 0,-3.203 1.508,-5.149 4.832,-5.149 2.854,0 4.891,2.682 4.891,3.537 0,0.327 0.005,9.874 0.005,9.874 C -2.052,-0.068 -2.54,0 -2.54,0 H 0" />
    </g>
    <g
       transform="matrix(0.35277777,0,0,-0.35277777,0.77409749,240.51532)"
       id="g925">
      <g
         clip-path="url(#clipPath931)"
         id="g927">
        <g
           transform="translate(214.363,61.584)"
           id="g933">
          <path
             inkscape:connector-curvature="0"
             id="path935"
             style="fill:#231f20;fill-opacity:1;fill-rule:nonzero;stroke:none"
             d="m 0,0 c 0.032,6.617 -6.522,6.895 -7.774,6.895 -1.255,0 -2.122,-0.234 -2.122,-0.234 0,0 0,-11.282 0,-12.473 0,-1.188 3.085,-1.034 3.085,-1.034 0,0 6.776,-0.26 6.811,6.846 L 1.628,0.353 C 1.36,-7.488 -6.363,-7.471 -6.363,-7.471 h -5.565 c 0,0 0.512,0.064 0.553,0.552 V 6.95 c -0.049,0.483 -0.553,0.543 -0.553,0.543 h 5.339 c 0,0 7.833,0.506 8.217,-7.14" />
        </g>
        <g
           transform="translate(261.234,61.802)"
           id="g937">
          <path
             inkscape:connector-curvature="0"
             id="path939"
             style="fill:#231f20;fill-opacity:1;fill-rule:nonzero;stroke:none"
             d="m 0,0 c 0.24,-3.908 -2.093,-7.23 -5.21,-7.42 -3.116,-0.191 -5.835,2.822 -6.075,6.73 l -1.636,-0.152 c 0.256,-4.204 3.713,-7.414 7.72,-7.169 4.007,0.245 7.046,3.852 6.789,8.056 L 0,0" />
        </g>
        <g
           transform="translate(261.234,61.802)"
           id="g941">
          <path
             inkscape:connector-curvature="0"
             id="path943"
             style="fill:#231f20;fill-opacity:1;fill-rule:nonzero;stroke:none"
             d="m 0,0 c -0.239,3.908 -2.959,6.921 -6.075,6.73 -3.116,-0.19 -5.448,-3.512 -5.21,-7.42 l -1.636,-0.152 c -0.257,4.204 2.783,7.812 6.79,8.056 C -2.126,7.459 1.331,4.25 1.588,0.045 L 0,0" />
        </g>
      </g>
    </g>
    <g
       transform="matrix(0.35277777,0,0,-0.35277777,0.77409749,240.51532)"
       id="g945">
      <g
         clip-path="url(#clipPath951)"
         id="g947">
        <g
           transform="translate(-9.57,680.485)"
           id="g953">
          <path
             inkscape:connector-curvature="0"
             id="path955"
             style="fill:none;stroke:#ffffff;stroke-width:1.25;stroke-linecap:butt;stroke-linejoin:miter;stroke-miterlimit:10;stroke-dasharray:none;stroke-opacity:1"
             d="M 0,0 H -15" />
          <g
             transform="translate(499.861)"
             id="g957">
            <path
               inkscape:connector-curvature="0"
               id="path959"
               style="fill:none;stroke:#ffffff;stroke-width:1.25;stroke-linecap:butt;stroke-linejoin:miter;stroke-miterlimit:10;stroke-dasharray:none;stroke-opacity:1"
               d="M 0,0 H 15" />
            <g
               transform="translate(-499.861,-680.341)"
               id="g961">
              <path
                 inkscape:connector-curvature="0"
                 id="path963"
                 style="fill:none;stroke:#ffffff;stroke-width:1.25;stroke-linecap:butt;stroke-linejoin:miter;stroke-miterlimit:10;stroke-dasharray:none;stroke-opacity:1"
                 d="M 0,0 H -15" />
              <g
                 transform="translate(499.861)"
                 id="g965">
                <path
                   inkscape:connector-curvature="0"
                   id="path967"
                   style="fill:none;stroke:#ffffff;stroke-width:1.25;stroke-linecap:butt;stroke-linejoin:miter;stroke-miterlimit:10;stroke-dasharray:none;stroke-opacity:1"
                   d="M 0,0 H 15" />
                <g
                   transform="translate(-490.861,689.341)"
                   id="g969">
                  <path
                     inkscape:connector-curvature="0"
                     id="path971"
                     style="fill:none;stroke:#ffffff;stroke-width:1.25;stroke-linecap:butt;stroke-linejoin:miter;stroke-miterlimit:10;stroke-dasharray:none;stroke-opacity:1"
                     d="M 0,0 V 15" />
                  <g
                     transform="translate(0,-698.341)"
                     id="g973">
                    <path
                       inkscape:connector-curvature="0"
                       id="path975"
                       style="fill:none;stroke:#ffffff;stroke-width:1.25;stroke-linecap:butt;stroke-linejoin:miter;stroke-miterlimit:10;stroke-dasharray:none;stroke-opacity:1"
                       d="M 0,0 V -15" />
                    <g
                       transform="translate(481.861,698.341)"
                       id="g977">
                      <path
                         inkscape:connector-curvature="0"
                         id="path979"
                         style="fill:none;stroke:#ffffff;stroke-width:1.25;stroke-linecap:butt;stroke-linejoin:miter;stroke-miterlimit:10;stroke-dasharray:none;stroke-opacity:1"
                         d="M 0,0 V 15" />
                      <g
                         transform="translate(0,-698.341)"
                         id="g981">
                        <path
                           inkscape:connector-curvature="0"
                           id="path983"
                           style="fill:none;stroke:#ffffff;stroke-width:1.25;stroke-linecap:butt;stroke-linejoin:miter;stroke-miterlimit:10;stroke-dasharray:none;stroke-opacity:1"
                           d="M 0,0 V -15" />
                      </g>
                    </g>
                  </g>
                </g>
              </g>
            </g>
          </g>
        </g>
        <g
           transform="translate(-9.57,680.485)"
           id="g985">
          <path
             inkscape:connector-curvature="0"
             id="path987"
             style="fill:none;stroke:#231f20;stroke-width:0.25;stroke-linecap:butt;stroke-linejoin:miter;stroke-miterlimit:10;stroke-dasharray:none;stroke-opacity:1"
             d="M 0,0 H -15" />
          <g
             transform="translate(499.861)"
             id="g989">
            <path
               inkscape:connector-curvature="0"
               id="path991"
               style="fill:none;stroke:#231f20;stroke-width:0.25;stroke-linecap:butt;stroke-linejoin:miter;stroke-miterlimit:10;stroke-dasharray:none;stroke-opacity:1"
               d="M 0,0 H 15" />
            <g
               transform="translate(-499.861,-680.341)"
               id="g993">
              <path
                 inkscape:connector-curvature="0"
                 id="path995"
                 style="fill:none;stroke:#231f20;stroke-width:0.25;stroke-linecap:butt;stroke-linejoin:miter;stroke-miterlimit:10;stroke-dasharray:none;stroke-opacity:1"
                 d="M 0,0 H -15" />
              <g
                 transform="translate(499.861)"
                 id="g997">
                <path
                   inkscape:connector-curvature="0"
                   id="path999"
                   style="fill:none;stroke:#231f20;stroke-width:0.25;stroke-linecap:butt;stroke-linejoin:miter;stroke-miterlimit:10;stroke-dasharray:none;stroke-opacity:1"
                   d="M 0,0 H 15" />
                <g
                   transform="translate(-490.861,689.341)"
                   id="g1001">
                  <path
                     inkscape:connector-curvature="0"
                     id="path1003"
                     style="fill:none;stroke:#231f20;stroke-width:0.25;stroke-linecap:butt;stroke-linejoin:miter;stroke-miterlimit:10;stroke-dasharray:none;stroke-opacity:1"
                     d="M 0,0 V 15" />
                  <g
                     transform="translate(0,-698.341)"
                     id="g1005">
                    <path
                       inkscape:connector-curvature="0"
                       id="path1007"
                       style="fill:none;stroke:#231f20;stroke-width:0.25;stroke-linecap:butt;stroke-linejoin:miter;stroke-miterlimit:10;stroke-dasharray:none;stroke-opacity:1"
                       d="M 0,0 V -15" />
                    <g
                       transform="translate(481.861,698.341)"
                       id="g1009">
                      <path
                         inkscape:connector-curvature="0"
                         id="path1011"
                         style="fill:none;stroke:#231f20;stroke-width:0.25;stroke-linecap:butt;stroke-linejoin:miter;stroke-miterlimit:10;stroke-dasharray:none;stroke-opacity:1"
                         d="M 0,0 V 15" />
                      <g
                         transform="translate(0,-698.341)"
                         id="g1013">
                        <path
                           inkscape:connector-curvature="0"
                           id="path1015"
                           style="fill:none;stroke:#231f20;stroke-width:0.25;stroke-linecap:butt;stroke-linejoin:miter;stroke-miterlimit:10;stroke-dasharray:none;stroke-opacity:1"
                           d="M 0,0 V -15" />
                      </g>
                    </g>
                  </g>
                </g>
              </g>
            </g>
          </g>
        </g>
      </g>
    </g>
    <path
       d="m 25.802439,72.889341 v -9.454022 h 3.53887 q 1.085935,0 1.654455,0.274678 0.568518,0.268289 0.894298,0.824032 0.332169,0.549356 0.332169,1.245633 0,0.83042 -0.479089,1.571411 -0.479089,0.734603 -1.354225,1.124262 l 3.091721,4.414006 H 31.085193 L 28.740852,69.02469 h -1.085936 v 3.864651 z m 1.852477,-5.161385 h 0.453538 q 1.220079,0 1.680004,-0.530191 0.459926,-0.530192 0.459926,-1.200917 0,-0.581295 -0.376883,-0.91985 -0.376883,-0.344944 -1.533084,-0.344944 h -0.683501 z"
       style="font-weight:bold;font-size:11.2995px;line-height:1.25;font-family:'Lucida Sans';-inkscape-font-specification:'Lucida Sans, Bold';letter-spacing:0px;word-spacing:0px;writing-mode:lr-tb;fill:#231f20;fill-opacity:1;stroke-width:0.306329"
       id="path1251"
       inkscape:connector-curvature="0" />
    <path
       d="m 45.306084,75.412543 v -9.537064 h 1.890804 v 1.322286 q 0.364108,-0.740992 0.939014,-1.111487 0.574907,-0.370496 1.354225,-0.370496 1.296735,0 2.005786,0.958178 0.709052,0.958178 0.709052,2.516814 0,1.648066 -0.792094,2.753165 -0.792094,1.105098 -2.216584,1.105098 -0.376884,0 -0.702664,-0.08305 -0.319393,-0.07666 -0.613234,-0.242739 -0.293842,-0.166084 -0.683501,-0.542968 v 3.232254 z m 1.890804,-4.356515 q 0.402435,0.447149 0.753766,0.606845 0.351333,0.159697 0.715441,0.159697 0.772929,0 1.149813,-0.747379 0.376883,-0.753767 0.376883,-1.724721 0,-1.002892 -0.364107,-1.577799 -0.35772,-0.574906 -1.022057,-0.574906 -0.41521,0 -0.836809,0.29384 -0.41521,0.287454 -0.77293,0.785706 z"
       style="font-weight:bold;font-size:11.2995px;line-height:1.25;font-family:'Lucida Sans';-inkscape-font-specification:'Lucida Sans, Bold';letter-spacing:0px;word-spacing:0px;writing-mode:lr-tb;fill:#231f20;fill-opacity:1;stroke-width:0.306329"
       id="path1253"
       inkscape:connector-curvature="0" />
    <path
       d="m 56.957526,73.049037 q -1.137038,0 -1.954682,-0.440761 -0.811258,-0.447151 -1.239244,-1.309511 -0.427987,-0.86236 -0.427987,-1.916355 0,-1.047608 0.4216,-1.903581 0.421598,-0.86236 1.239242,-1.309509 0.817645,-0.453538 1.961071,-0.453538 1.149813,0 1.961071,0.453538 0.817645,0.447149 1.239243,1.309509 0.427987,0.855973 0.427987,1.903581 0,1.053995 -0.427987,1.916355 -0.427986,0.86236 -1.245631,1.309511 -0.811257,0.440761 -1.954683,0.440761 z m 0,-1.181753 q 0.804869,0 1.207304,-0.702664 0.408823,-0.709051 0.408823,-1.78221 0,-1.066772 -0.408823,-1.775823 -0.402435,-0.709052 -1.207304,-0.709052 -0.798482,0 -1.207304,0.709052 -0.402434,0.709051 -0.402434,1.775823 0,1.073159 0.402434,1.78221 0.408822,0.702664 1.207304,0.702664 z"
       style="font-weight:bold;font-size:11.2995px;line-height:1.25;font-family:'Lucida Sans';-inkscape-font-specification:'Lucida Sans, Bold';letter-spacing:0px;word-spacing:0px;writing-mode:lr-tb;fill:#231f20;fill-opacity:1;stroke-width:0.306329"
       id="path1255"
       inkscape:connector-curvature="0" />
    <path
       d="m 66.660676,72.889341 v -1.322286 q -0.50464,0.804869 -1.124263,1.143426 -0.619621,0.338556 -1.264794,0.338556 -0.83042,0 -1.430879,-0.530192 -0.59407,-0.536579 -0.59407,-1.686392 v -4.956974 h 1.890804 v 4.490661 q 0,0.574906 0.102209,0.779317 0.108588,0.204412 0.287453,0.313005 0.185247,0.102209 0.408822,0.102209 0.389659,0 0.811257,-0.255514 0.421599,-0.261902 0.913463,-1.015669 v -4.414005 h 1.890804 v 7.013862 z"
       style="font-weight:bold;font-size:11.2995px;line-height:1.25;font-family:'Lucida Sans';-inkscape-font-specification:'Lucida Sans, Bold';letter-spacing:0px;word-spacing:0px;writing-mode:lr-tb;fill:#231f20;fill-opacity:1;stroke-width:0.306329"
       id="path1257"
       inkscape:connector-curvature="0" />
    <path
       d="m 70.908597,72.889341 v -7.013862 h 1.890805 v 1.322286 q 0.338556,-0.677113 0.926238,-1.079548 0.587683,-0.402435 1.30951,-0.402435 0.172472,0 0.351332,0.03832 v 1.686397 q -0.396048,-0.14692 -0.747379,-0.14692 -0.562131,0 -1.022056,0.287454 -0.459925,0.281064 -0.817645,0.855972 v 4.452333 z"
       style="font-weight:bold;font-size:11.2995px;line-height:1.25;font-family:'Lucida Sans';-inkscape-font-specification:'Lucida Sans, Bold';letter-spacing:0px;word-spacing:0px;writing-mode:lr-tb;fill:#231f20;fill-opacity:1;stroke-width:0.306329"
       id="path1259"
       inkscape:connector-curvature="0" />
    <path
       d="M 86.399451,72.889341 V 62.802922 h 1.890804 v 10.086419 z"
       style="font-weight:bold;font-size:11.2995px;line-height:1.25;font-family:'Lucida Sans';-inkscape-font-specification:'Lucida Sans, Bold';letter-spacing:0px;word-spacing:0px;writing-mode:lr-tb;fill:#231f20;fill-opacity:1;stroke-width:0.306329"
       id="path1261"
       inkscape:connector-curvature="0" />
    <path
       d="m 96.377274,72.65299 q -1.347836,0.396047 -2.555141,0.396047 -1.143425,0 -2.005786,-0.421598 -0.855971,-0.427987 -1.322285,-1.328674 -0.459926,-0.907074 -0.459926,-1.967458 0,-0.983729 0.38966,-1.814151 0.396046,-0.836807 1.143425,-1.315896 0.753767,-0.485478 1.852477,-0.485478 1.347838,0 2.152707,0.855973 0.804869,0.855972 0.804869,3.187538 h -4.350127 q 0.06387,0.709052 0.319392,1.117874 0.261902,0.408823 0.702664,0.651561 0.440762,0.236351 1.181753,0.236351 0.95179,0 2.146318,-0.440762 z m -4.375679,-3.960468 h 2.516814 q 0,-0.964566 -0.32578,-1.379776 -0.319393,-0.415211 -0.830422,-0.415211 -0.555743,0 -0.913462,0.459926 -0.35772,0.453537 -0.44715,1.335061 z"
       style="font-weight:bold;font-size:11.2995px;line-height:1.25;font-family:'Lucida Sans';-inkscape-font-specification:'Lucida Sans, Bold';letter-spacing:0px;word-spacing:0px;writing-mode:lr-tb;fill:#231f20;fill-opacity:1;stroke-width:0.306329"
       id="path1263"
       inkscape:connector-curvature="0" />
    <path
       d="m 98.146709,72.665766 v -1.386164 q 1.405327,0.587682 2.401831,0.587682 0.53019,0 0.8432,-0.223575 0.31939,-0.223574 0.31939,-0.568518 0,-0.300229 -0.23635,-0.504641 -0.23635,-0.198023 -0.72183,-0.389658 l -0.63878,-0.255515 q -0.99012,-0.396046 -1.462821,-0.875135 -0.472702,-0.472701 -0.472702,-1.232856 0,-0.913463 0.709052,-1.507533 0.71544,-0.594071 2.178261,-0.594071 0.85597,0 2.03772,0.249127 v 1.328673 q -1.13704,-0.396047 -1.88442,-0.396047 -0.58768,0 -0.88152,0.204412 -0.29384,0.198023 -0.29384,0.517416 0,0.249126 0.19164,0.440762 0.18524,0.191635 0.67711,0.376883 l 0.54935,0.210799 q 1.36062,0.517416 1.78221,1.002893 0.41522,0.491865 0.41522,1.175365 0,0.887911 -0.76655,1.558635 -0.76015,0.664337 -2.21658,0.664337 -1.239246,0 -2.529591,-0.383271 z"
       style="font-weight:bold;font-size:11.2995px;line-height:1.25;font-family:'Lucida Sans';-inkscape-font-specification:'Lucida Sans, Bold';letter-spacing:0px;word-spacing:0px;writing-mode:lr-tb;fill:#231f20;fill-opacity:1;stroke-width:0.306329"
       id="path1265"
       inkscape:connector-curvature="0" />
    <path
       d="m 25.617191,89.018668 v -1.386163 q 1.405328,0.587682 2.401833,0.587682 0.530192,0 0.843196,-0.223575 0.319393,-0.223575 0.319393,-0.568519 0,-0.300229 -0.236351,-0.50464 -0.23635,-0.198024 -0.721826,-0.38966 L 27.58465,86.27828 q -0.990118,-0.396047 -1.462818,-0.875136 -0.472701,-0.4727 -0.472701,-1.232855 0,-0.913463 0.709051,-1.507534 0.715439,-0.59407 2.178258,-0.59407 0.855972,0 2.037725,0.249126 v 1.328673 q -1.137038,-0.396046 -1.884417,-0.396046 -0.587682,0 -0.881523,0.204411 -0.293842,0.198024 -0.293842,0.517416 0,0.249126 0.191635,0.440761 0.185249,0.191636 0.677113,0.376884 l 0.549356,0.210799 q 1.360612,0.517416 1.782211,1.002894 0.41521,0.491863 0.41521,1.175364 0,0.887912 -0.766543,1.558636 -0.760154,0.664336 -2.216584,0.664336 -1.239243,0 -2.52959,-0.383271 z"
       style="font-weight:bold;font-size:11.2995px;line-height:1.25;font-family:'Lucida Sans';-inkscape-font-specification:'Lucida Sans, Bold';letter-spacing:0px;word-spacing:0px;writing-mode:lr-tb;fill:#231f20;fill-opacity:1;stroke-width:0.306329"
       id="path1267"
       inkscape:connector-curvature="0" />
    <path
       d="m 38.386508,89.088935 q -1.175364,0.313004 -2.191033,0.313004 -1.801374,0 -2.708449,-1.060383 -0.907075,-1.066771 -0.907075,-2.612632 0,-1.622514 0.958178,-2.638183 0.958178,-1.022056 2.817042,-1.022056 0.855973,0 1.973846,0.274677 v 1.367001 Q 37.166429,83.33348 36.47654,83.33348 q -0.983729,0 -1.437266,0.747378 -0.453537,0.740992 -0.453537,1.635291 0,0.689888 0.261901,1.290346 0.261902,0.59407 0.728215,0.868748 0.472701,0.274678 1.060384,0.274678 0.849584,0 1.750271,-0.370495 z"
       style="font-weight:bold;font-size:11.2995px;line-height:1.25;font-family:'Lucida Sans';-inkscape-font-specification:'Lucida Sans, Bold';letter-spacing:0px;word-spacing:0px;writing-mode:lr-tb;fill:#231f20;fill-opacity:1;stroke-width:0.306329"
       id="path1269"
       inkscape:connector-curvature="0" />
    <path
       d="m 40.187883,89.242243 v -7.013862 h 1.890805 v 7.013862 z m 0,-8.195615 v -1.577799 h 1.890805 v 1.577799 z"
       style="font-weight:bold;font-size:11.2995px;line-height:1.25;font-family:'Lucida Sans';-inkscape-font-specification:'Lucida Sans, Bold';letter-spacing:0px;word-spacing:0px;writing-mode:lr-tb;fill:#231f20;fill-opacity:1;stroke-width:0.306329"
       id="path1271"
       inkscape:connector-curvature="0" />
    <path
       d="m 50.165709,89.005893 q -1.347836,0.396046 -2.55514,0.396046 -1.143426,0 -2.005786,-0.421598 -0.855972,-0.427986 -1.322285,-1.328673 -0.459927,-0.907075 -0.459927,-1.967458 0,-0.98373 0.38966,-1.814151 0.396047,-0.836809 1.143426,-1.315897 0.753766,-0.485477 1.852477,-0.485477 1.347836,0 2.152706,0.855973 0.804869,0.855971 0.804869,3.187537 h -4.350127 q 0.06387,0.709052 0.319392,1.117875 0.261902,0.408822 0.702664,0.651561 0.440762,0.23635 1.181753,0.23635 0.95179,0 2.146318,-0.440762 z M 45.79003,85.045425 h 2.516814 q 0,-0.964567 -0.32578,-1.379777 -0.319393,-0.41521 -0.830421,-0.41521 -0.555743,0 -0.913463,0.459925 -0.35772,0.453537 -0.44715,1.335062 z"
       style="font-weight:bold;font-size:11.2995px;line-height:1.25;font-family:'Lucida Sans';-inkscape-font-specification:'Lucida Sans, Bold';letter-spacing:0px;word-spacing:0px;writing-mode:lr-tb;fill:#231f20;fill-opacity:1;stroke-width:0.306329"
       id="path1273"
       inkscape:connector-curvature="0" />
    <path
       d="m 52.120392,89.242243 v -7.013862 h 1.890803 v 1.322285 q 0.511028,-0.811256 1.130651,-1.143425 0.619621,-0.338556 1.258406,-0.338556 0.830421,0 1.424491,0.53658 0.600458,0.530192 0.600458,1.680005 v 4.956973 h -1.890804 v -4.49066 q 0,-0.574907 -0.108589,-0.779318 -0.102208,-0.204411 -0.287453,-0.306617 -0.17886,-0.108588 -0.402435,-0.108588 -0.389659,0 -0.811257,0.261901 -0.421599,0.255515 -0.913464,1.009281 v 4.414006 z"
       style="font-weight:bold;font-size:11.2995px;line-height:1.25;font-family:'Lucida Sans';-inkscape-font-specification:'Lucida Sans, Bold';letter-spacing:0px;word-spacing:0px;writing-mode:lr-tb;fill:#231f20;fill-opacity:1;stroke-width:0.306329"
       id="path1275"
       inkscape:connector-curvature="0" />
    <path
       d="m 64.321188,89.203916 q -0.677112,0.198023 -1.066771,0.198023 -0.926238,0 -1.437267,-0.261901 -0.511027,-0.261902 -0.766542,-0.709051 -0.255514,-0.453538 -0.255514,-1.328674 v -3.692179 h -0.785705 v -1.181753 h 0.785705 v -1.181753 l 1.890805,-0.217186 v 1.398939 h 1.501144 v 1.181753 h -1.501144 v 3.443052 q 0,0.760155 0.268289,1.028445 0.26829,0.261902 0.785706,0.261902 0.242739,0 0.581294,-0.08943 z"
       style="font-weight:bold;font-size:11.2995px;line-height:1.25;font-family:'Lucida Sans';-inkscape-font-specification:'Lucida Sans, Bold';letter-spacing:0px;word-spacing:0px;writing-mode:lr-tb;fill:#231f20;fill-opacity:1;stroke-width:0.306329"
       id="path1277"
       inkscape:connector-curvature="0" />
    <path
       d="m 66.020359,89.242243 v -7.013862 h 1.890805 v 7.013862 z m 0,-8.195615 v -1.577799 h 1.890805 v 1.577799 z"
       style="font-weight:bold;font-size:11.2995px;line-height:1.25;font-family:'Lucida Sans';-inkscape-font-specification:'Lucida Sans, Bold';letter-spacing:0px;word-spacing:0px;writing-mode:lr-tb;fill:#231f20;fill-opacity:1;stroke-width:0.306329"
       id="path1279"
       inkscape:connector-curvature="0" />
    <path
       d="M 70.485465,89.242243 V 83.410134 H 69.5209 v -1.181753 h 0.964565 v -0.50464 q 0,-1.469206 0.670726,-2.095216 0.677112,-0.632397 1.916355,-0.632397 0.836809,0 1.72472,0.242739 v 1.27757 q -0.804869,-0.338556 -1.443654,-0.338556 -0.300229,0 -0.517417,0.121369 -0.210799,0.114979 -0.338555,0.396047 -0.12137,0.274677 -0.12137,0.958178 v 0.574906 h 1.775823 v 1.181753 H 72.37627 v 5.832109 z"
       style="font-weight:bold;font-size:11.2995px;line-height:1.25;font-family:'Lucida Sans';-inkscape-font-specification:'Lucida Sans, Bold';letter-spacing:0px;word-spacing:0px;writing-mode:lr-tb;fill:#231f20;fill-opacity:1;stroke-width:0.306329"
       id="path1281"
       inkscape:connector-curvature="0" />
    <path
       d="m 75.704342,89.242243 v -7.013862 h 1.890804 v 7.013862 z m 0,-8.195615 v -1.577799 h 1.890804 v 1.577799 z"
       style="font-weight:bold;font-size:11.2995px;line-height:1.25;font-family:'Lucida Sans';-inkscape-font-specification:'Lucida Sans, Bold';letter-spacing:0px;word-spacing:0px;writing-mode:lr-tb;fill:#231f20;fill-opacity:1;stroke-width:0.306329"
       id="path1283"
       inkscape:connector-curvature="0" />
    <path
       d="m 84.385436,91.765445 v -3.845487 q -0.364108,0.740991 -0.939015,1.111486 -0.568519,0.370495 -1.354224,0.370495 -1.290347,0 -1.999399,-0.951789 -0.709051,-0.958178 -0.709051,-2.523202 0,-1.654454 0.792093,-2.753164 0.792094,-1.105099 2.210197,-1.105099 0.383271,0 0.702664,0.08304 0.319393,0.07666 0.613234,0.242739 0.293841,0.166084 0.683501,0.542967 l 0.23635,-0.709052 h 1.660842 v 9.537064 z m 0,-7.70375 q -0.396048,-0.447149 -0.747379,-0.606846 -0.351333,-0.159696 -0.71544,-0.159696 -0.766542,0 -1.149813,0.740991 -0.376884,0.734602 -0.376884,1.731107 0,0.98373 0.351333,1.571413 0.357719,0.581294 1.028444,0.581294 0.427986,0 0.843196,-0.293841 0.421599,-0.300229 0.766543,-0.785707 z"
       style="font-weight:bold;font-size:11.2995px;line-height:1.25;font-family:'Lucida Sans';-inkscape-font-specification:'Lucida Sans, Bold';letter-spacing:0px;word-spacing:0px;writing-mode:lr-tb;fill:#231f20;fill-opacity:1;stroke-width:0.306329"
       id="path1285"
       inkscape:connector-curvature="0" />
    <path
       d="m 92.97071,89.242243 v -1.322285 q -0.504639,0.804869 -1.124262,1.143426 -0.619621,0.338555 -1.264794,0.338555 -0.830421,0 -1.43088,-0.530191 -0.59407,-0.536579 -0.59407,-1.686394 v -4.956973 h 1.890805 v 4.490661 q 0,0.574906 0.102208,0.779318 0.1086,0.204411 0.287454,0.313004 0.185248,0.102209 0.408823,0.102209 0.389659,0 0.811257,-0.255515 0.421598,-0.261901 0.913463,-1.015668 v -4.414007 h 1.890804 v 7.013863 z"
       style="font-weight:bold;font-size:11.2995px;line-height:1.25;font-family:'Lucida Sans';-inkscape-font-specification:'Lucida Sans, Bold';letter-spacing:0px;word-spacing:0px;writing-mode:lr-tb;fill:#231f20;fill-opacity:1;stroke-width:0.306329"
       id="path1287"
       inkscape:connector-curvature="0" />
    <path
       d="m 102.92937,89.005893 q -1.34784,0.396046 -2.55514,0.396046 -1.143427,0 -2.005787,-0.421598 -0.855973,-0.427986 -1.322285,-1.328673 -0.459926,-0.907075 -0.459926,-1.967458 0,-0.98373 0.389659,-1.814151 0.396047,-0.836809 1.143426,-1.315897 0.753766,-0.485477 1.852477,-0.485477 1.347836,0 2.152706,0.855973 0.80487,0.855971 0.80487,3.187537 h -4.350128 q 0.06388,0.709052 0.319393,1.117875 0.261901,0.408822 0.702663,0.651561 0.440762,0.23635 1.181752,0.23635 0.95179,0 2.14632,-0.440762 z m -4.375679,-3.960468 h 2.516809 q 0,-0.964567 -0.32578,-1.379777 -0.31939,-0.41521 -0.830417,-0.41521 -0.555743,0 -0.913463,0.459925 -0.35772,0.453537 -0.447149,1.335062 z"
       style="font-weight:bold;font-size:11.2995px;line-height:1.25;font-family:'Lucida Sans';-inkscape-font-specification:'Lucida Sans, Bold';letter-spacing:0px;word-spacing:0px;writing-mode:lr-tb;fill:#231f20;fill-opacity:1;stroke-width:0.306329"
       id="path1289"
       inkscape:connector-curvature="0" />
    <path
       d="m 104.69881,89.018668 v -1.386163 q 1.40532,0.587682 2.40183,0.587682 0.53019,0 0.84319,-0.223575 0.3194,-0.223575 0.3194,-0.568519 0,-0.300229 -0.23635,-0.50464 -0.23635,-0.198024 -0.72183,-0.38966 l -0.63879,-0.255513 q -0.99011,-0.396047 -1.46281,-0.875136 -0.4727,-0.4727 -0.4727,-1.232855 0,-0.913463 0.70905,-1.507534 0.71543,-0.59407 2.17825,-0.59407 0.85598,0 2.03773,0.249126 v 1.328673 q -1.13704,-0.396046 -1.88442,-0.396046 -0.58768,0 -0.88152,0.204411 -0.29384,0.198024 -0.29384,0.517416 0,0.249126 0.19163,0.440761 0.18525,0.191636 0.67711,0.376884 l 0.54936,0.210799 q 1.36061,0.517416 1.78221,1.002894 0.41521,0.491863 0.41521,1.175364 0,0.887912 -0.76654,1.558636 -0.76016,0.664336 -2.21659,0.664336 -1.23924,0 -2.52958,-0.383271 z"
       style="font-weight:bold;font-size:11.2995px;line-height:1.25;font-family:'Lucida Sans';-inkscape-font-specification:'Lucida Sans, Bold';letter-spacing:0px;word-spacing:0px;writing-mode:lr-tb;fill:#231f20;fill-opacity:1;stroke-width:0.306329"
       id="path1291"
       inkscape:connector-curvature="0" />
    <rect
       ry="3.5922523"
       rx="3.1674027"
       y="94.914673"
       x="36.623688"
       height="37.979443"
       width="116.27673"
       id="rect1203"
       style="fill:url(#linearGradient1211);fill-opacity:1;stroke-width:0.0788892;stroke-linecap:round" />
    <text
       id="text1215"
       y="105.73801"
       x="37.202835"
       style="font-weight:bold;font-size:11.2995px;line-height:1.25;font-family:'Lucida Sans';-inkscape-font-specification:'Lucida Sans, Bold';letter-spacing:0px;word-spacing:0px;writing-mode:lr-tb;fill:#7b7979;fill-opacity:1;stroke-width:0.264583"
       xml:space="preserve"><tspan
         style="fill:#7b7979;fill-opacity:1;stroke-width:0.264583"
         y="105.73801"
         x="37.202835"
         id="tspan1213"
         sodipodi:role="line">Mise</tspan></text>
    <text
       id="text1219"
       y="105.7627"
       x="70.667984"
       style="font-weight:bold;font-size:9.2766px;line-height:1.25;font-family:'Lucida Sans';-inkscape-font-specification:'Lucida Sans, Bold';letter-spacing:0px;word-spacing:0px;writing-mode:lr-tb;fill:#7b7979;fill-opacity:1;stroke-width:0.217216"
       xml:space="preserve"><tspan
         style="fill:#7b7979;fill-opacity:1;stroke-width:0.217216"
         y="105.7627"
         x="70.667984"
         id="tspan1217"
         sodipodi:role="line">en</tspan></text>
    <text
       id="text1223"
       y="105.72041"
       x="87.980209"
       style="font-weight:bold;font-size:12.7406px;line-height:1.25;font-family:'Lucida Sans';-inkscape-font-specification:'Lucida Sans, Bold';letter-spacing:0px;word-spacing:0px;writing-mode:lr-tb;fill:#7b7979;fill-opacity:1;stroke-width:0.298326"
       xml:space="preserve"><tspan
         style="fill:#7b7979;fill-opacity:1;stroke-width:0.298326"
         y="105.72041"
         x="87.980209"
         id="tspan1221"
         sodipodi:role="line">œuvre</tspan></text>
    <text
       id="text1227"
       y="105.76452"
       x="136.84821"
       style="font-weight:bold;font-size:9.12779px;line-height:1.25;font-family:'Lucida Sans';-inkscape-font-specification:'Lucida Sans, Bold';letter-spacing:0px;word-spacing:0px;writing-mode:lr-tb;fill:#7b7979;fill-opacity:1;stroke-width:0.213731"
       xml:space="preserve"><tspan
         style="fill:#7b7979;fill-opacity:1;stroke-width:0.213731"
         y="105.76452"
         x="136.84821"
         id="tspan1225"
         sodipodi:role="line">de</tspan></text>
    <text
       id="text1231"
       y="116.8091"
       x="37.935852"
       style="font-weight:bold;font-size:11.2995px;line-height:1.25;font-family:'Lucida Sans';-inkscape-font-specification:'Lucida Sans, Bold';letter-spacing:0px;word-spacing:0px;writing-mode:lr-tb;fill:#7b7979;fill-opacity:1;stroke-width:0.264583"
       xml:space="preserve"><tspan
         style="fill:#7b7979;fill-opacity:1;stroke-width:0.264583"
         y="116.8091"
         x="37.935852"
         id="tspan1229"
         sodipodi:role="line">projets</tspan></text>
    <text
       id="text1235"
       y="116.77589"
       x="80.374657"
       style="font-weight:bold;font-size:8.7038px;line-height:1.25;font-family:'Lucida Sans';-inkscape-font-specification:'Lucida Sans, Bold';letter-spacing:0px;word-spacing:0px;writing-mode:lr-tb;fill:#7b7979;fill-opacity:1;stroke-width:0.203803"
       xml:space="preserve"><tspan
         style="fill:#7b7979;fill-opacity:1;stroke-width:0.203803"
         y="116.77589"
         x="80.374657"
         id="tspan1233"
         sodipodi:role="line">et</tspan></text>
    <text
       id="text1239"
       y="116.76777"
       x="91.294945"
       style="font-weight:bold;font-size:9.36909px;line-height:1.25;font-family:'Lucida Sans';-inkscape-font-specification:'Lucida Sans, Bold';letter-spacing:0px;word-spacing:0px;writing-mode:lr-tb;fill:#7b7979;fill-opacity:1;stroke-width:0.219382"
       xml:space="preserve"><tspan
         style="fill:#7b7979;fill-opacity:1;stroke-width:0.219382"
         y="116.76777"
         x="91.294945"
         id="tspan1237"
         sodipodi:role="line">valorisation</tspan></text>
    <text
       id="text1243"
       y="129.39738"
       x="38.381039"
       style="font-weight:bold;font-size:9.61039px;line-height:1.25;font-family:'Lucida Sans';-inkscape-font-specification:'Lucida Sans, Bold';letter-spacing:0px;word-spacing:0px;writing-mode:lr-tb;fill:#7b7979;fill-opacity:1;stroke-width:0.225032"
       xml:space="preserve"><tspan
         style="fill:#7b7979;fill-opacity:1;stroke-width:0.225032"
         y="129.39738"
         x="38.381039"
         id="tspan1241"
         sodipodi:role="line">des</tspan></text>
    <text
       id="text1247"
       y="129.35614"
       x="61.404205"
       style="font-weight:bold;font-size:12.9886px;line-height:1.25;font-family:'Lucida Sans';-inkscape-font-specification:'Lucida Sans, Bold';letter-spacing:0px;word-spacing:0px;writing-mode:lr-tb;fill:#7b7979;fill-opacity:1;stroke-width:0.304134"
       xml:space="preserve"><tspan
         style="fill:#7b7979;fill-opacity:1;stroke-width:0.304134"
         y="129.35614"
         x="61.404205"
         id="tspan1245"
         sodipodi:role="line">résultats</tspan></text>
  </g>
</svg>
